<svg fill="none" height="32" viewBox="0 0 32 32" width="32" xmlns="http://www.w3.org/2000/svg"><path d="m15.5625 6.17615c0-2.64061-2.1406-4.78125-4.7812-4.78125-1.2704 0-2.42505.49544-3.2813 1.30364v-.0125l-3.07164 3.11862-.00524.00566c-.40503.43743-.9819.6897-1.58312.6897h-.33c-.55614 0-1.01.45386-1.01 1.01 0 1.64614 1.34386 2.98998 2.99 2.98998h1.84286l-.51521 1.132-.00618-.0007-1.09861 2.3687h-.00405l-.08293.1876-.20584.4437h.00955c-.19618.4421-.41091.8983-.62641 1.356-.34501.7329-.69199 1.4699-.96798 2.1603-.47651 1.1919-.8352 2.4472-.8352 3.8524 0 4.9723 4.02772 9 9 9h8c6.6323 0 12-5.3677 12-12v-4.36c0-2.2344-2.6962-3.3414-4.2734-1.7808l-.0037.0037c-.732.732-1.7174 1.1371-2.7429 1.1371h-11.4755l.7143-1.5625-.0019-.0002 1.9543-4.35707-.0028-.00025c.2536-.58338.3941-1.22719.3941-1.90383zm-4.0425.34384c0 .55229-.4477 1-1 1-.55225 0-.99996-.44771-.99996-1 0-.55228.44771-1 .99996-1 .5523 0 1 .44772 1 1zm-6.3686-.02436 1.3486-1.36923v4.37362h-2.01c-1.09386 0-1.99-.89614-1.99-1.99l.00037-.00199s.00139-.00266.00318-.00445c.0018-.0018.00446-.00319.00446-.00319l.00199-.00037h.33c.87608 0 1.71674-.36547 2.3114-1.00439zm18.8286 9.50437c1.5534 0 3.0469-.614 4.1547-1.7205.323-.3174.8653-.0845.8653.3605v4.2286c0 2.722-1.0919 5.1902-2.8596 7h-9.5404c-3.6116 0-6.5415-2.8941-6.5991-6.4918h.0099c0-.8541.1267-1.3098.4804-2.0101l.0805-.1563c.0046-.0088.0092-.0176.0139-.0265.3897-.7403.7348-1.1241 1.2719-1.1839zm-14.98 6.4c0-.544.05061-1.0865.15012-1.6195.70026 3.4747 3.76758 6.0881 7.44988 6.0881h8.576c-1.6998 1.3354-3.844 2.1314-6.176 2.1314h-8c-.6951 0-1.36636-.1011-2-.2895zm-3.01382-8.7687.46381-1h5.59131l-.4638 1z" fill="#212121"/></svg>